<?xml version="1.0"?>
<svg version="1.1" xmlns="http://www.w3.org/2000/svg" width="1024" height="1024">
<path d="M0 0 C1.0817612 0.88965139 2.16379452 1.77897199 3.24609375 2.66796875 C13.46002807 11.12425584 23.89508381 19.86605379 32.390625 30.0859375 C33.52771819 31.43830561 34.70999313 32.7532854 35.921875 34.0390625 C49.40289682 48.35649809 60.10772604 65.08131195 70 82 C70.42120117 82.71833008 70.84240234 83.43666016 71.27636719 84.17675781 C91.87156698 119.8151126 103.04757504 162.39184284 103.375 203.4375 C103.38893799 204.55664795 103.40287598 205.6757959 103.41723633 206.82885742 C103.35343849 217.78965675 100.90988304 226.13592709 93 234 C85.61474701 239.36278972 77.12282087 242.14579149 68 241 C58.75554736 238.79768389 52.79926363 234.41536044 46.6875 227.3125 C42.30826383 218.71622159 41.60633448 209.4931807 41.5 200 C40.97795285 181.1727124 37.80493047 163.91131377 32 146 C31.77473633 145.30487305 31.54947266 144.60974609 31.31738281 143.89355469 C13.41663821 90.08429103 -26.73199474 43.04957734 -77 17 C-77.69722168 16.63310059 -78.39444336 16.26620117 -79.11279297 15.88818359 C-133.47584689 -12.40316885 -197.81431308 -16.08268649 -255.88134766 1.95385742 C-299.77847016 16.13749434 -339.21325935 43.03478426 -367 80 C-367.71027344 80.92683594 -368.42054688 81.85367188 -369.15234375 82.80859375 C-378.27750617 94.96945376 -385.59431063 108.23916138 -392 122 C-392.33386719 122.71607422 -392.66773438 123.43214844 -393.01171875 124.16992188 C-407.85925777 156.51025113 -412.1112947 189.93883279 -412.16866493 225.17572784 C-412.17591998 228.70817227 -412.19164783 232.24048484 -412.21000671 235.77288818 C-412.26208598 245.80593172 -412.31048713 255.83889415 -412.32592773 265.87207031 C-412.33602821 272.03511163 -412.36538759 278.19780612 -412.40724754 284.36071014 C-412.4195138 286.6969312 -412.42468685 289.03320124 -412.42244911 291.36945343 C-412.42008651 294.63762881 -412.44233056 297.9048109 -412.4699707 301.17285156 C-412.46006859 302.60075012 -412.46006859 302.60075012 -412.44996643 304.05749512 C-412.57198596 312.887648 -415.09670596 320.94625832 -421.25 327.46875 C-427.45592161 332.89893141 -434.76119026 335.73351559 -443 336 C-451.99626647 334.99788424 -459.04737905 331.92313056 -464.75 324.8203125 C-470.33682045 316.84297753 -471.29678125 310.16657439 -471.2746582 300.59228516 C-471.27976913 299.44977798 -471.28488007 298.30727081 -471.29014587 297.13014221 C-471.30404963 293.34972898 -471.30308226 289.56949829 -471.30078125 285.7890625 C-471.30368729 283.81223115 -471.30659881 281.83539973 -471.310188 279.8585695 C-471.32128018 273.62867639 -471.32172738 267.39884352 -471.31567383 261.16894531 C-471.30968396 254.80605722 -471.32181711 248.44339305 -471.3432439 242.08054316 C-471.36107836 236.57604458 -471.36682609 231.07161572 -471.36360615 225.56708944 C-471.36182155 222.29893522 -471.36551673 219.03097081 -471.37832069 215.76283646 C-471.45056738 194.71428231 -470.07909513 174.05521207 -465.3125 153.5 C-465.05831299 152.3874585 -464.80412598 151.27491699 -464.54223633 150.12866211 C-456.97131413 118.15222299 -443.27239974 86.69852722 -424 60 C-423.52949219 59.34692871 -423.05898438 58.69385742 -422.57421875 58.02099609 C-414.2896915 46.60244749 -405.65986369 35.27453196 -395.47265625 25.47265625 C-393.76334088 23.81385258 -393.76334088 23.81385258 -391.5625 21 C-389.00220406 18.00258036 -386.33095779 15.57144091 -383.3359375 13.02734375 C-380.67230037 10.71559179 -378.12736524 8.29581117 -375.5625 5.875 C-331.51138082 -34.92226278 -272.19820301 -57.98520932 -213 -64 C-211.94941406 -64.11214844 -210.89882813 -64.22429687 -209.81640625 -64.33984375 C-136.03576123 -70.9322392 -56.96878868 -47.70672065 0 0 Z " fill="#48CACA" transform="translate(696,150)"></path>
<path d="M0 0 C16.3556239 14.10157153 26.92984167 32.45651191 28.625 54.1875 C29.59206229 74.03957313 27.09461818 91.48017033 20.625 110.1875 C20.10679687 111.7653125 20.10679687 111.7653125 19.578125 113.375 C7.45021595 147.82529238 -20.57915513 180.29313861 -49.375 202.1875 C-50.54998434 203.11394299 -51.72442621 204.04107424 -52.8984375 204.96875 C-63.17813284 212.98905669 -74.04582844 219.75446709 -85.375 226.1875 C-86.1086377 226.60660645 -86.84227539 227.02571289 -87.59814453 227.45751953 C-123.41208585 247.73095954 -164.40462197 257.66109156 -205.42724609 257.44824219 C-207.87492613 257.43750032 -210.32187274 257.44823762 -212.76953125 257.4609375 C-228.52297384 257.47636635 -243.98314403 255.97326857 -259.4375 252.875 C-260.53312256 252.6577124 -261.62874512 252.4404248 -262.75756836 252.21655273 C-295.62367155 245.54231663 -295.62367155 245.54231663 -304.375 233.1875 C-308.59931296 225.64408399 -309.86122329 217.90622873 -307.65625 209.421875 C-305.75281351 204.29487671 -303.65136593 200.73375467 -299.375 197.1875 C-298.611875 196.48625 -297.84875 195.785 -297.0625 195.0625 C-290.16547884 190.25062477 -283.65465894 189.58717436 -275.375 190.1875 C-271.47436498 190.90177649 -267.69147019 191.93019374 -263.875 193 C-256.32852327 194.99914819 -248.84396472 196.80996651 -241.125 198 C-240.05668945 198.16689331 -240.05668945 198.16689331 -238.96679688 198.3371582 C-187.02935864 205.91237075 -133.79480178 194.04744396 -91.3125 162.875 C-62.74486098 140.79651554 -33.42599099 110.4151201 -27.375 73.1875 C-26.55875499 64.58685525 -26.24466692 55.56324201 -31.375 48.1875 C-39.39748716 41.23037331 -48.7778974 41.5149322 -58.86230469 41.96972656 C-76.22339581 43.47439944 -90.64608121 54.17718295 -103.68994141 64.82470703 C-106.29686743 66.93306128 -108.96105134 68.96443572 -111.625 71 C-115.30024762 73.81098353 -118.95865556 76.64110593 -122.59375 79.50390625 C-131.99920889 86.90013359 -141.5278927 94.0375178 -151.38720703 100.81884766 C-152.66220595 101.6967209 -153.93429599 102.57884283 -155.20263672 103.46630859 C-194.33417758 130.8442916 -239.32650757 148.54929201 -286.375 156.1875 C-287.3546875 156.35266113 -288.334375 156.51782227 -289.34375 156.68798828 C-328.19268116 162.99963419 -391.32212941 166.35543088 -426.13671875 145.11254883 C-432.23820097 140.48936968 -435.33846969 134.62954029 -436.8125 127.25 C-437.96210343 118.36568608 -436.16531131 112.36350796 -430.9375 105.125 C-426.3209241 99.40044588 -419.95142328 95.84978991 -412.67578125 94.796875 C-405.56169966 94.53649031 -398.82658942 95.73470228 -391.875 97.0625 C-320.10183072 110.76128917 -246.17002476 93.97778651 -185.84301758 53.13476562 C-178.56336918 48.11490044 -171.49228087 42.85974528 -164.52734375 37.4140625 C-120.30726498 2.85148709 -54.27854911 -41.17391498 0 0 Z " fill="#21A2A5" transform="translate(690.375,643.8125)"></path>
<path d="M0 0 C1.67300504 1.50037326 3.33639039 3.0115676 4.98828125 4.53515625 C7.10066115 6.47331925 9.26169947 8.33132646 11.44921875 10.18359375 C32.54932875 28.61902096 52.13622557 59.98906172 56.26171875 88.05859375 C56.74001549 96.33312732 54.30983403 104.61179467 49.13671875 111.12109375 C43.38224091 116.99985836 35.81283241 120.22187325 27.69921875 120.93359375 C19.25496673 120.77634511 12.15493485 117.19331231 6.015625 111.59765625 C1.94953093 107.01537652 -0.27238973 102.59805215 -1.98828125 96.74609375 C-7.67885763 78.64074241 -17.78719172 64.39217777 -30.73828125 50.62109375 C-31.27582031 50.01910156 -31.81335938 49.41710937 -32.3671875 48.796875 C-37.99789754 42.74280331 -44.91307416 38.20969452 -51.73828125 33.62109375 C-53.12466797 32.67363281 -53.12466797 32.67363281 -54.5390625 31.70703125 C-80.77141566 15.07928786 -116.75524578 9.94602936 -146.87890625 16.65625 C-148.1525 16.97464844 -149.42609375 17.29304687 -150.73828125 17.62109375 C-151.38345703 17.78206543 -152.02863281 17.94303711 -152.69335938 18.10888672 C-184.37374814 26.29639533 -209.99742812 47.43308242 -234.77514648 67.8190918 C-242.84877142 74.41642011 -251.27900027 80.53110944 -259.73828125 86.62109375 C-260.61299072 87.2545874 -260.61299072 87.2545874 -261.50537109 87.90087891 C-323.7911432 132.83930717 -395.84092191 149.93584013 -471.77929688 138.00292969 C-492.88524565 134.53799659 -513.805072 129.54300019 -533.86328125 122.05859375 C-534.91962769 121.67392944 -534.91962769 121.67392944 -535.99731445 121.28149414 C-544.14394818 118.06443455 -549.94322407 112.49287251 -553.73828125 104.62109375 C-556.84583465 96.15624777 -556.18308585 88.76335917 -552.73828125 80.62109375 C-549.02357891 73.60443378 -542.548588 68.51150055 -534.95117188 66.15234375 C-526.2571448 64.06516338 -518.30614609 66.5780272 -509.99362183 69.18231201 C-506.56062091 70.25446195 -503.11198352 71.27392903 -499.6640625 72.296875 C-498.98058243 72.50046631 -498.29710236 72.70405762 -497.59291077 72.91381836 C-476.1701008 79.25563421 -454.07428054 82.89324041 -431.73828125 83.62109375 C-430.75263184 83.65396484 -430.75263184 83.65396484 -429.74707031 83.6875 C-378.37734438 85.16860695 -330.24985195 67.6189542 -289.73828125 36.62109375 C-289.11904785 36.14816895 -288.49981445 35.67524414 -287.86181641 35.18798828 C-281.02831766 29.94133634 -274.35289142 24.50178665 -267.67578125 19.05859375 C-260.79157647 13.44899899 -253.84540076 7.94754971 -246.73828125 2.62109375 C-245.74538086 1.87110107 -245.74538086 1.87110107 -244.73242188 1.10595703 C-172.6199524 -53.14333668 -74.92138454 -62.48278577 0 0 Z " fill="#04706B" transform="translate(750.73828125,559.37890625)"></path>
<path d="M0 0 C55.74908556 -1.58125629 114.7657375 15.0844493 160.02832031 48.06201172 C160.66495605 48.51898438 161.3015918 48.97595703 161.95751953 49.44677734 C171.43680712 56.27278809 180.43708179 63.55929621 189.12988281 71.36035156 C190.4294764 72.52523934 191.73444668 73.68414873 193.04394531 74.83789062 C212.33220131 91.85775201 212.33220131 91.85775201 213.30175781 103.28466797 C213.55215222 112.75150264 212.67838121 119.72114355 206.26660156 127.08544922 C200.54266261 132.58879012 193.54306577 136.16026323 185.52832031 136.49951172 C170.95251766 135.67833974 162.43656098 126.75382937 152.77832031 116.74951172 C145.59138376 109.44875175 138.46008675 102.91798916 130.02832031 97.06201172 C128.92154062 96.26384692 127.81477006 95.46566946 126.70800781 94.66748047 C102.20549419 77.35063551 74.38554116 66.63632561 45.02832031 61.06201172 C43.87460937 60.82869141 42.72089844 60.59537109 41.53222656 60.35498047 C1.66598638 53.43686888 -40.80990711 60.37092895 -76.97167969 78.06201172 C-77.803125 78.46548828 -78.63457031 78.86896484 -79.49121094 79.28466797 C-92.79208827 85.80548789 -104.99151252 93.36777619 -116.97167969 102.06201172 C-117.7525293 102.62823242 -118.53337891 103.19445312 -119.33789062 103.77783203 C-124.10735097 107.24956005 -128.84811115 110.75880841 -133.57910156 114.28271484 C-138.4119459 117.87677296 -143.2656625 121.44260803 -148.11694336 125.01171875 C-151.75407638 127.68829208 -155.38761135 130.36907084 -159.00683594 133.06982422 C-194.54355271 159.52039706 -234.02479126 178.90907251 -277.97167969 186.06201172 C-278.92155762 186.22282227 -279.87143555 186.38363281 -280.85009766 186.54931641 C-313.29477638 191.85019873 -345.85215568 189.86511718 -377.78417969 182.68701172 C-379.04278809 182.40720459 -380.30139648 182.12739746 -381.59814453 181.83911133 C-392.82387302 179.17975265 -402.31047853 175.94279344 -408.97167969 166.06201172 C-412.78617245 159.65911316 -412.87747521 152.30837589 -411.97167969 145.06201172 C-409.30700683 136.17976887 -403.52901775 130.88756132 -395.84667969 126.12451172 C-383.74256748 121.84772541 -369.76531945 126.5561322 -357.88256836 129.48950195 C-350.96430645 130.85017663 -344.03973277 131.2311308 -337.00292969 131.30029297 C-336.17307556 131.31008682 -335.34322144 131.31988068 -334.48822021 131.32997131 C-308.17519674 131.57650825 -284.10342279 129.42478261 -258.97167969 121.06201172 C-257.71291016 120.64508057 -257.71291016 120.64508057 -256.42871094 120.21972656 C-226.99144554 110.24013295 -202.10497949 93.71385132 -177.92138672 74.59570312 C-173.34021348 70.99203042 -168.66473604 67.51791336 -163.97167969 64.06201172 C-163.01455078 63.35359131 -163.01455078 63.35359131 -162.03808594 62.63085938 C-113.62829826 26.87567867 -61.13929227 1.92290493 0 0 Z " fill="#37BFC1" transform="translate(622.9716796875,402.93798828125)"></path>
<path d="M0 0 C0.886875 0.76183594 1.77375 1.52367187 2.6875 2.30859375 C3.615625 3.10136719 4.54375 3.89414063 5.5 4.7109375 C11.97708685 10.40537636 17.43051444 16.48489436 22.6875 23.30859375 C23.77998047 24.66017578 23.77998047 24.66017578 24.89453125 26.0390625 C46.81259718 53.86848072 59.38714695 91.54046529 56.4609375 127.05859375 C54.93138761 135.69605197 50.54478878 142.61584163 43.671875 148.08984375 C37.99421387 151.57691121 31.28035182 153.02781395 24.6875 152.30859375 C15.34451336 150.03864277 8.10755088 145.340243 2.6875 137.30859375 C-0.34335386 130.78613865 -0.90159414 124.80989147 -1.3125 117.68359375 C-3.49846138 87.42997977 -15.15079222 62.41106435 -37.1875 41.49609375 C-58.21858742 23.4167379 -85.38500202 13.85301086 -113 13.99609375 C-114.70119995 14.00346558 -114.70119995 14.00346558 -116.43676758 14.01098633 C-148.04392249 14.44863422 -175.16643976 27.23798692 -197.3984375 49.38671875 C-222.80117442 76.49635895 -226.47139594 109.44691396 -226.42003441 144.80895615 C-226.41643278 150.13440398 -226.4423712 155.45975657 -226.46289062 160.78515625 C-226.48721101 167.50660248 -226.50283789 174.22773438 -226.48754883 180.94921875 C-226.47584601 186.43620612 -226.49337079 191.92243641 -226.52999306 197.40930557 C-226.53855223 199.48152159 -226.53661514 201.55381114 -226.523489 203.62600327 C-226.45071279 216.0240094 -226.40184901 226.48605389 -235.05387878 236.27975464 C-236.70767096 237.88903986 -238.35622135 239.08794055 -240.3125 240.30859375 C-240.95703125 240.71851563 -241.6015625 241.1284375 -242.265625 241.55078125 C-249.51003153 245.44129587 -258.0818394 245.67981258 -265.96484375 243.61328125 C-268.24813274 242.68435342 -270.23397255 241.63053721 -272.3125 240.30859375 C-272.93640625 239.91929687 -273.5603125 239.53 -274.203125 239.12890625 C-279.83903572 234.98773707 -283.54880812 229.04117278 -285.3125 222.30859375 C-286.42837979 214.04500575 -286.08459328 205.62230498 -286.00390625 197.3046875 C-286.00032215 194.85628987 -285.9989732 192.40788805 -285.9997406 189.95948792 C-285.99506285 184.83788042 -285.97033762 179.71690693 -285.92993164 174.59545898 C-285.87915396 168.08223263 -285.86748468 161.5697051 -285.86976719 155.05630398 C-285.86894461 150.00026471 -285.85237935 144.94437339 -285.83076286 139.88838387 C-285.82131866 137.48980894 -285.81532826 135.09121751 -285.81308174 132.69262505 C-285.77813162 114.87284304 -284.70946247 97.71544275 -279.5 80.55859375 C-279.24065674 79.68428711 -278.98131348 78.80998047 -278.71411133 77.90917969 C-268.06227267 42.79577501 -246.71268087 13.15650594 -217.3125 -8.69140625 C-216.75240234 -9.11180176 -216.19230469 -9.53219727 -215.61523438 -9.96533203 C-151.23669219 -57.60620975 -60.1512923 -50.44665067 0 0 Z " fill="#30BFC2" transform="translate(625.3125,227.69140625)"></path>
<path d="M0 0 C-4.71071424 2.61129356 -9.09930772 3.91896762 -14.3125 5 C-15.09286621 5.16733643 -15.87323242 5.33467285 -16.67724609 5.50708008 C-44.07875716 11.28988439 -44.07875716 11.28988439 -53.5 11 C-56.97075276 10.95285905 -60.23759437 11.299345 -63.67919922 11.77563477 C-74.11455842 12.78448129 -84.76496127 11.81190233 -95.1875 11.0625 C-96.46302734 10.97548828 -97.73855469 10.88847656 -99.05273438 10.79882812 C-120.3173713 9.32439259 -120.3173713 9.32439259 -127 7 C-129.30008746 6.66671362 -131.59624942 6.4343553 -133.91015625 6.21875 C-136 6 -136 6 -138.5 5.4375 C-144.33648332 4.41611542 -149.59072362 4.44561949 -155 7 C-156.3303125 7.185625 -156.3303125 7.185625 -157.6875 7.375 C-160.09774898 7.74295044 -160.09774898 7.74295044 -161 9.625 C-161.33 10.40875 -161.66 11.1925 -162 12 C-162.8188961 13.11491598 -163.65395048 14.2180464 -164.5 15.3125 C-168.48329345 20.82331011 -169.38101341 26.26876312 -169 33 C-168.7018576 34.34164079 -168.37756808 35.67851173 -168 37 C-168 37.99 -168 38.98 -168 40 C-167.34 40.33 -166.68 40.66 -166 41 C-165.401875 41.928125 -164.80375 42.85625 -164.1875 43.8125 C-156.90864198 54.41883597 -142.83940369 55.67941775 -131 58 C-130.11828125 58.18046875 -129.2365625 58.3609375 -128.328125 58.546875 C-125.23419958 59.1490484 -122.12209725 59.57147685 -119 60 C-119 60.66 -119 61.32 -119 62 C-117.02 62 -115.04 62 -113 62 C-113 62.33 -113 62.66 -113 63 C-122.10354167 62.5211633 -130.79066296 61.2800211 -139.6875 59.3125 C-140.83283203 59.08111328 -141.97816406 58.84972656 -143.15820312 58.61132812 C-153.39199975 56.37030805 -161.90784781 52.79338919 -167.88671875 43.8671875 C-171.63532974 37.58004346 -172.68699726 30.71931752 -171.4375 23.5 C-169.33485766 15.38777853 -164.21978521 9.15384917 -157.14453125 4.87890625 C-147.25333752 -0.32793344 -136.99270309 1.87082709 -126.5 3.875 C-88.09722247 11.20464084 -44.55125227 11.12661228 -6.89453125 -0.1796875 C-4.02635122 -0.99253204 -2.72981378 -1.09192551 0 0 Z " fill="#7CD8D3" transform="translate(425,737)"></path>
<path d="M0 0 C-8.72398861 4.81660681 -20.30307277 5.3480304 -30 7 C-31.00869141 7.17241211 -32.01738281 7.34482422 -33.05664062 7.52246094 C-48.1153801 9.96455591 -63.09268478 10.28348209 -78.3125 10.3125 C-79.69100128 10.31801376 -79.69100128 10.31801376 -81.09735107 10.32363892 C-94.50527421 10.35164385 -107.67636876 9.48323353 -121 8 C-121 7.67 -121 7.34 -121 7 C-113.67175434 6.97677836 -106.34351669 6.95903496 -99.01524162 6.94818783 C-95.61203583 6.94298044 -92.20885531 6.93592192 -88.80566406 6.92456055 C-84.888675 6.91156647 -80.971696 6.90675405 -77.0546875 6.90234375 C-75.23093094 6.89460182 -75.23093094 6.89460182 -73.37033081 6.88670349 C-71.6592363 6.88659019 -71.6592363 6.88659019 -69.91357422 6.88647461 C-68.41466141 6.88314369 -68.41466141 6.88314369 -66.88546753 6.87974548 C-64 7 -64 7 -60.75540161 7.56959534 C-58.04751899 8.26538228 -58.04751899 8.26538228 -56 7 C-54.6718544 6.80553687 -53.33676082 6.65704616 -52 6.53515625 C-51.20029785 6.45845703 -50.4005957 6.38175781 -49.57666016 6.30273438 C-48.30121338 6.18381836 -48.30121338 6.18381836 -47 6.0625 C-41.05371277 5.4746121 -35.23212097 4.80860155 -29.39453125 3.5 C-26.38270125 2.87110238 -23.35724272 2.44136701 -20.3125 2 C-16.80367009 1.48581039 -13.48794245 0.93851893 -10.125 -0.1875 C-6.42933879 -1.14837191 -3.71142842 -0.75743437 0 0 Z " fill="#74D5D4" transform="translate(434,793)"></path>
<path d="M0 0 C-4.71071424 2.61129356 -9.09930772 3.91896762 -14.3125 5 C-15.09286621 5.16733643 -15.87323242 5.33467285 -16.67724609 5.50708008 C-44.07875716 11.28988439 -44.07875716 11.28988439 -53.5 11 C-56.96319614 10.95296168 -60.22216864 11.29648176 -63.65625 11.7734375 C-73.40321701 12.71564431 -83.28110669 11.9040831 -93 11 C-93 10.67 -93 10.34 -93 10 C-92.18547363 9.98018066 -91.37094727 9.96036133 -90.53173828 9.93994141 C-69.88039813 9.41266075 -49.96924414 7.88271368 -29.5625 4.5625 C-28.29341797 4.3572168 -27.02433594 4.15193359 -25.71679688 3.94042969 C-19.08736308 2.82622448 -12.69824559 1.49883303 -6.28491211 -0.53149414 C-3.80783082 -1.039403 -2.36932551 -0.80931225 0 0 Z " fill="#65D0CF" transform="translate(425,737)"></path>
<path d="M0 0 C0 0.33 0 0.66 0 1 C-0.86052979 0.99476318 -1.72105957 0.98952637 -2.60766602 0.98413086 C-5.87866926 0.9668286 -9.14962214 0.95442593 -12.4206543 0.94506836 C-13.82170389 0.94011765 -15.22274856 0.93335536 -16.6237793 0.92456055 C-25.3636251 0.87117306 -33.98375521 1.12731176 -42.70336914 1.77514648 C-46.63223478 2.04312288 -50.50042277 2.09999597 -54.4375 2.0625 C-55.69433594 2.05347656 -56.95117188 2.04445313 -58.24609375 2.03515625 C-59.60927734 2.01775391 -59.60927734 2.01775391 -61 2 C-61 2.66 -61 3.32 -61 4 C-63.97 3.505 -63.97 3.505 -67 3 C-67 2.67 -67 2.34 -67 2 C-44.82609308 -1.40570193 -22.23966891 -4.40078254 0 0 Z " fill="#5EC4C9" transform="translate(652,405)"></path>
<path d="M0 0 C-6.23986047 2.14814869 -11.40630297 3.2397708 -18 3 C-18.33 3.33 -18.66 3.66 -19 4 C-22.01808063 4.101137 -25.01280513 4.13968909 -28.03125 4.1328125 C-28.93750122 4.13376923 -29.84375244 4.13472595 -30.77746582 4.13571167 C-32.69751047 4.13639353 -34.61755741 4.13453882 -36.53759766 4.13037109 C-39.48735704 4.12502292 -42.43696414 4.13031588 -45.38671875 4.13671875 C-47.24739617 4.13605797 -49.1080735 4.13477681 -50.96875 4.1328125 C-52.30153992 4.13584885 -52.30153992 4.13584885 -53.66125488 4.13894653 C-59.88505012 4.11494988 -59.88505012 4.11494988 -61 3 C-63.18639453 2.92741054 -65.37500389 2.91626217 -67.5625 2.9375 C-68.76003906 2.94652344 -69.95757812 2.95554687 -71.19140625 2.96484375 C-72.58166016 2.98224609 -72.58166016 2.98224609 -74 3 C-74.33 2.01 -74.66 1.02 -75 0 C-73.7325293 0.10501831 -73.7325293 0.10501831 -72.43945312 0.2121582 C-62.3451568 0.97408086 -52.296658 1.18623011 -42.17529297 1.18530273 C-39.50342036 1.18749719 -36.83195686 1.2057594 -34.16015625 1.22460938 C-24.92552287 1.25286517 -16.06585023 0.86860206 -6.95117188 -0.66674805 C-4.22633926 -0.97444134 -2.55749552 -0.89410607 0 0 Z " fill="#C2EBEB" transform="translate(337,533)"></path>
<path d="M0 0 C0.66 0 1.32 0 2 0 C2.45439453 1.01320313 2.45439453 1.01320313 2.91796875 2.046875 C5.31206283 7.14445378 7.14601924 10.85147194 12 14 C12.66 14.66 13.32 15.32 14 16 C20.20881727 19.3866276 25.9844278 21.15813134 33 22 C33 22.33 33 22.66 33 23 C23.72646549 23.60810062 15.80132826 21.69323708 8.5625 15.625 C3.71358033 10.96487024 0.65188336 6.84477526 0 0 Z " fill="#5CBFC5" transform="translate(740,368)"></path>
<path d="M0 0 C0.66 0.33 1.32 0.66 2 1 C-1.15026341 5.82384084 -4.38991835 9.39775603 -8.796875 13.08984375 C-12.74025328 16.50883662 -16.34961991 20.27357032 -20 24 C-20.99 23.67 -21.98 23.34 -23 23 C-15.69568836 14.86710152 -8.2434374 7.18866687 0 0 Z " fill="#4CC8C9" transform="translate(401,224)"></path>
<path d="M0 0 C2.38564077 0.57584432 4.66682784 1.22227595 7 2 C7 2.66 7 3.32 7 4 C8.2375 4.268125 9.475 4.53625 10.75 4.8125 C14.63156873 5.68123205 18.50691693 6.57297766 22.375 7.5 C23.87160156 7.85578125 23.87160156 7.85578125 25.3984375 8.21875 C28 9 28 9 31 11 C25.16581459 11.2281525 20.47250837 10.6263372 14.9375 8.8125 C14.24011719 8.58981445 13.54273438 8.36712891 12.82421875 8.13769531 C7.85393104 6.47236865 3.93385865 4.54047278 0 1 C0 0.67 0 0.34 0 0 Z " fill="#358482" transform="translate(391,882)"></path>
<path d="M0 0 C-4.50049607 3.05850039 -9.23294766 4.57563375 -14.375 6.1875 C-15.2 6.46013672 -16.025 6.73277344 -16.875 7.01367188 C-21.77783846 8.56623739 -25.85958515 9.31175023 -31 9 C-28.34532506 7.23021671 -26.78900015 6.52255942 -23.8125 5.6875 C-20.47346099 4.73278218 -17.15695455 3.7366134 -13.85546875 2.66015625 C-13.13705811 2.4278833 -12.41864746 2.19561035 -11.6784668 1.95629883 C-10.23676568 1.48887293 -8.79677759 1.01612703 -7.35864258 0.5378418 C-2.22337929 -1.11168964 -2.22337929 -1.11168964 0 0 Z " fill="#388A8D" transform="translate(573,884)"></path>
<path d="M0 0 C0.66 0.66 1.32 1.32 2 2 C-3.94 7.94 -9.88 13.88 -16 20 C-16.66 19.34 -17.32 18.68 -18 18 C-13.91484787 13.08505134 -9.68843705 8.661664 -4.796875 4.54296875 C-3.11316264 3.09717227 -1.54694933 1.58992015 0 0 Z " fill="#6AD4CF" transform="translate(315,161)"></path>
<path d="M0 0 C0.66 0.33 1.32 0.66 2 1 C-1.61328125 5.6875 -1.61328125 5.6875 -3 7 C-3.99 7 -4.98 7 -6 7 C-6.2475 7.598125 -6.495 8.19625 -6.75 8.8125 C-9.11688033 12.95454057 -12.63544728 14.42391152 -17 16 C-12.52034826 9.97564076 -6.84211711 5.65604971 -1 1 C-0.67 0.67 -0.34 0.34 0 0 Z " fill="#7BD8D3" transform="translate(333,145)"></path>
<path d="M0 0 C4.28742939 2.85828626 4.31196108 5.94103248 5.4375 10.80078125 C6.17152768 14.97556365 6.21135793 18.77284138 6 23 C4.23814696 20.35722044 3.61561418 19.05132516 2.9296875 16.09375 C2.66865234 14.97806641 2.66865234 14.97806641 2.40234375 13.83984375 C2.14130859 12.68162109 2.14130859 12.68162109 1.875 11.5 C1.60236328 10.34177734 1.60236328 10.34177734 1.32421875 9.16015625 C0.60729959 6.04991296 0 3.20218305 0 0 Z " fill="#4CC0C5" transform="translate(787,287)"></path>
<path d="M0 0 C1.4540625 0.0309375 1.4540625 0.0309375 2.9375 0.0625 C-0.53902039 3.02332171 -4.41928468 4.6074593 -8.625 6.25 C-9.29724609 6.52263672 -9.96949219 6.79527344 -10.66210938 7.07617188 C-13.60916423 8.24387285 -15.86406144 9.0625 -19.0625 9.0625 C-19.0625 8.4025 -19.0625 7.7425 -19.0625 7.0625 C-17.4125 7.0625 -15.7625 7.0625 -14.0625 7.0625 C-14.0625 6.4025 -14.0625 5.7425 -14.0625 5.0625 C-13.35222656 4.78535156 -12.64195312 4.50820313 -11.91015625 4.22265625 C-10.53150391 3.67931641 -10.53150391 3.67931641 -9.125 3.125 C-8.20847656 2.76535156 -7.29195313 2.40570312 -6.34765625 2.03515625 C-1.64514463 0.03357438 -1.64514463 0.03357438 0 0 Z " fill="#66CDCE" transform="translate(481.0625,774.9375)"></path>
<path d="M0 0 C0.66 0 1.32 0 2 0 C1.38955672 7.63054095 -0.79621821 14.70189474 -3 22 C-3.66 20.68 -4.32 19.36 -5 18 C-4.34 18 -3.68 18 -3 18 C-2.95101562 17.20335937 -2.90203125 16.40671875 -2.8515625 15.5859375 C-2.10896309 5.06151142 -2.10896309 5.06151142 0 0 Z " fill="#51AFB7" transform="translate(715,730)"></path>
<path d="M0 0 C-6.23986047 2.14814869 -11.40630297 3.2397708 -18 3 C-18.33 3.33 -18.66 3.66 -19 4 C-21.33297433 4.04092937 -23.66705225 4.04241723 -26 4 C-26 3.34 -26 2.68 -26 2 C-22.4184073 1.46669495 -18.83454729 0.95053833 -15.25 0.4375 C-14.23421875 0.28603516 -13.2184375 0.13457031 -12.171875 -0.02148438 C-11.1921875 -0.16005859 -10.2125 -0.29863281 -9.203125 -0.44140625 C-7.85202637 -0.63778687 -7.85202637 -0.63778687 -6.47363281 -0.83813477 C-4.04031365 -0.99736203 -2.30785997 -0.73710222 0 0 Z " fill="#7AD6D4" transform="translate(337,533)"></path>
<path d="M0 0 C0.66 0 1.32 0 2 0 C1.47470631 4.1088041 0.33192009 6.25519841 -2.4375 9.3125 C-3.05496094 10.00988281 -3.67242188 10.70726562 -4.30859375 11.42578125 C-6 13 -6 13 -8 13 C-8 10 -8 10 -6.125 8.0625 C-5.42375 7.381875 -4.7225 6.70125 -4 6 C-2.76487921 3.86690808 -2.76487921 3.86690808 -2 2 C-1.34 2 -0.68 2 0 2 C0 1.34 0 0.68 0 0 Z " fill="#45B0B9" transform="translate(832,520)"></path>
<path d="M0 0 C1.22589844 -0.01417969 2.45179688 -0.02835938 3.71484375 -0.04296875 C6.81893812 0.17073203 8.47612551 0.54751818 11.0625 2.1875 C7.23671227 3.41371401 3.41272923 3.37119231 -0.5625 3.375 C-1.243125 3.38724609 -1.92375 3.39949219 -2.625 3.41210938 C-4.39740756 3.41736355 -6.1692994 3.30965906 -7.9375 3.1875 C-8.5975 2.5275 -9.2575 1.8675 -9.9375 1.1875 C-6.46363568 0.02954523 -3.65980696 0.01920151 0 0 Z " fill="#7CD8D2" transform="translate(237.9375,527.8125)"></path>
<path d="M0 0 C6.11090483 -0.09945415 11.97403427 -0.0712828 18 1 C18 1.66 18 2.32 18 3 C13.19417384 4.50182068 9.66301627 3.31617395 5 2 C3.33605325 1.65334443 1.67056149 1.31323028 0 1 C0 0.67 0 0.34 0 0 Z " fill="#368584" transform="translate(440,842)"></path>
<path d="M0 0 C0.66 0 1.32 0 2 0 C2.32613281 0.67546875 2.65226563 1.3509375 2.98828125 2.046875 C3.42527344 2.93890625 3.86226562 3.8309375 4.3125 4.75 C4.74175781 5.63171875 5.17101562 6.5134375 5.61328125 7.421875 C6.90103146 9.81600215 8.30915754 11.87776958 10 14 C7 14 7 14 5.4296875 12.4609375 C2.36153844 8.3443757 0.26523588 5.30471764 0 0 Z " fill="#56BDC3" transform="translate(740,368)"></path>
<path d="M0 0 C0.66 0 1.32 0 2 0 C2.72649803 2.24553936 3.43129347 4.49433488 4.125 6.75 C4.71667969 8.62945312 4.71667969 8.62945312 5.3203125 10.546875 C6 14 6 14 5.1171875 16.453125 C4.74851562 16.96359375 4.37984375 17.4740625 4 18 C3.32678716 15.75194998 2.66165877 13.50147776 2 11.25 C1.62875 9.99703125 1.2575 8.7440625 0.875 7.453125 C0 4 0 4 0 0 Z " fill="#59C3C7" transform="translate(618,309)"></path>
<path d="M0 0 C0.66 0.33 1.32 0.66 2 1 C-2.625 6.75 -2.625 6.75 -6 9 C-7.32 8.67 -8.64 8.34 -10 8 C-6.7 5.36 -3.4 2.72 0 0 Z " fill="#52C2C5" transform="translate(526,681)"></path>
<path d="M0 0 C0.99 0.33 1.98 0.66 3 1 C-0.63 4.63 -4.26 8.26 -8 12 C-8 8.03869629 -6.65122875 7.17085599 -4 4.3125 C-3.2575 3.50425781 -2.515 2.69601562 -1.75 1.86328125 C-1.1725 1.24839844 -0.595 0.63351562 0 0 Z " fill="#1C8A93" transform="translate(621,788)"></path>
<path d="M0 0 C4.2829452 0.5479083 6.85135641 2.02432804 10.3125 4.5625 C11.19550781 5.20316406 12.07851563 5.84382813 12.98828125 6.50390625 C13.65214844 6.99761719 14.31601562 7.49132812 15 8 C12 9 12 9 10.17578125 8.22265625 C8.45052083 7.1484375 6.72526042 6.07421875 5 5 C5 4.34 5 3.68 5 3 C4.01 3 3.02 3 2 3 C2 2.34 2 1.68 2 1 C1.34 0.67 0.68 0.34 0 0 Z " fill="#53BBC2" transform="translate(775,448)"></path>
<path d="M0 0 C0.43570313 0.37511719 0.87140625 0.75023437 1.3203125 1.13671875 C5.18607599 4.45859777 9.07657648 7.74642927 13 11 C12.01 11.33 11.02 11.66 10 12 C9.236875 11.195625 8.47375 10.39125 7.6875 9.5625 C5.20569102 6.83200976 5.20569102 6.83200976 2 6 C0 3 0 3 0 0 Z " fill="#59BBC2" transform="translate(809,472)"></path>
<path d="M0 0 C-0.33 0.99 -0.66 1.98 -1 3 C-3.97 2.505 -3.97 2.505 -7 2 C-7 2.66 -7 3.32 -7 4 C-10.69418201 5.231394 -13.2056261 4.64432764 -17 4 C-17 3.67 -17 3.34 -17 3 C-14.91798472 2.49453964 -12.83432933 1.99583165 -10.75 1.5 C-9.58984375 1.2215625 -8.4296875 0.943125 -7.234375 0.65625 C-4 0 -4 0 0 0 Z " fill="#79D8D5" transform="translate(355,528)"></path>
<path d="M0 0 C0.33 0.66 0.66 1.32 1 2 C1.99 1.67 2.98 1.34 4 1 C6.36522558 1.92203709 8.70401807 2.91698965 11 4 C11 4.66 11 5.32 11 6 C6.22423661 5.5317879 2.95523655 4.75668002 -1 2 C-0.67 1.34 -0.34 0.68 0 0 Z " fill="#7CD8D1" transform="translate(224,576)"></path>
<path d="M0 0 C0.99 0.66 1.98 1.32 3 2 C1.23141309 2.67260351 -0.53996016 3.33788395 -2.3125 4 C-3.29863281 4.37125 -4.28476562 4.7425 -5.30078125 5.125 C-8 6 -8 6 -11 6 C-11 5.34 -11 4.68 -11 4 C-9.23585377 3.27517252 -7.46337096 2.57060704 -5.6875 1.875 C-4.70136719 1.48054687 -3.71523438 1.08609375 -2.69921875 0.6796875 C-1.80847656 0.45539062 -0.91773438 0.23109375 0 0 Z " fill="#6ED0D0" transform="translate(459,783)"></path>
<path d="M0 0 C0 0.66 0 1.32 0 2 C-3.63423209 4.32590854 -6.77088331 4.16265833 -11 4 C-11.33 4.66 -11.66 5.32 -12 6 C-12.99 5.34 -13.98 4.68 -15 4 C-13.06441401 3.32779649 -11.12645628 2.66241923 -9.1875 2 C-8.10855469 1.62875 -7.02960938 1.2575 -5.91796875 0.875 C-3 0 -3 0 0 0 Z " fill="#79D2D3" transform="translate(440,731)"></path>
<path d="M0 0 C-3.22741144 2.85856441 -5.60370982 4.76236269 -10 5 C-10.66 4.34 -11.32 3.68 -12 3 C-10.5682384 2.30062798 -9.12932968 1.61587282 -7.6875 0.9375 C-6.48673828 0.36322266 -6.48673828 0.36322266 -5.26171875 -0.22265625 C-3 -1 -3 -1 0 0 Z " fill="#63CBCC" transform="translate(465,722)"></path>
<path d="M0 0 C9.59453303 2.89066059 9.59453303 2.89066059 13 6 C8.02693484 5.50269348 4.36200187 4.44697666 0 2 C0 1.34 0 0.68 0 0 Z " fill="#59BEC4" transform="translate(736,426)"></path>
<path d="M0 0 C0.66 0.33 1.32 0.66 2 1 C-1.02299093 4.88670262 -3.45945591 7.84921596 -8 10 C-8.99 10 -9.98 10 -11 10 C-5.555 5.05 -5.555 5.05 0 0 Z " fill="#70D0D0" transform="translate(401,224)"></path>
<path d="M0 0 C0.66 0.33 1.32 0.66 2 1 C-1.515625 5.6875 -1.515625 5.6875 -3 7 C-4.32 7 -5.64 7 -7 7 C-5.66667905 3.00003714 -3.5042173 2.16217663 0 0 Z " fill="#50C8C9" transform="translate(418,212)"></path>
<path d="M0 0 C1.7015625 0.4640625 1.7015625 0.4640625 3.4375 0.9375 C7.92461414 2.06931233 12.39707347 2.59511294 17 3 C17 3.33 17 3.66 17 4 C14.91781638 4.10832169 12.83400871 4.18573541 10.75 4.25 C9.00976562 4.31960938 9.00976562 4.31960938 7.234375 4.390625 C3.42333987 3.93035506 2.34488245 2.94851556 0 0 Z " fill="#2EA3AE" transform="translate(795,534)"></path>
<path d="M0 0 C4 0 4 0 6.625 2.375 C7.40875 3.24125 8.1925 4.1075 9 5 C9.66 5.66 10.32 6.32 11 7 C10.67 7.99 10.34 8.98 10 10 C6.66666667 6.66666667 3.33333333 3.33333333 0 0 Z " fill="#4CB4BC" transform="translate(763,507)"></path>
<path d="M0 0 C0 0.66 0 1.32 0 2 C-1.4096347 2.70180531 -2.82807641 3.38593958 -4.25 4.0625 C-5.03890625 4.44535156 -5.8278125 4.82820313 -6.640625 5.22265625 C-9.25993522 6.08564091 -10.44855176 5.93045933 -13 5 C-11.39967863 4.15930585 -9.79458829 3.32768495 -8.1875 2.5 C-6.84751953 1.80390625 -6.84751953 1.80390625 -5.48046875 1.09375 C-3 0 -3 0 0 0 Z " fill="#66C9CC" transform="translate(532,424)"></path>
<path d="M0 0 C2.38564077 0.57584432 4.66682784 1.22227595 7 2 C7 2.66 7 3.32 7 4 C7.99 4 8.98 4 10 4 C10.33 4.99 10.66 5.98 11 7 C6.00724943 5.72278474 3.42388092 3.82669043 0 0 Z " fill="#519593" transform="translate(391,882)"></path>
<path d="M0 0 C1.98 0 3.96 0 6 0 C2.87511433 2.52394612 -0.31314387 4.39701907 -4 6 C-4.66 5.67 -5.32 5.34 -6 5 C-4.6875 3.5 -4.6875 3.5 -3 2 C-2.01 2 -1.02 2 0 2 C0 1.34 0 0.68 0 0 Z " fill="#58A1A5" transform="translate(592,873)"></path>
<path d="M0 0 C3 2 3 2 4 5 C4.66 5.33 5.32 5.66 6 6 C6 6.99 6 7.98 6 9 C6.66 9.33 7.32 9.66 8 10 C7.01 10 6.02 10 5 10 C3.61328125 8.57421875 3.61328125 8.57421875 2.3125 6.6875 C1.87550781 6.07261719 1.43851563 5.45773437 0.98828125 4.82421875 C0 3 0 3 0 0 Z " fill="#57BFC0" transform="translate(228,467)"></path>
<path d="M0 0 C1.90401138 1.90401138 2.93520439 3.33425686 3.19921875 6.046875 C3.1886578 8.03233273 3.09915043 10.0169914 3 12 C2.34 12 1.68 12 1 12 C0.01751476 7.9472484 -0.08159574 4.16138263 0 0 Z " fill="#45BCC2" transform="translate(677,317)"></path>
<path d="M0 0 C3 1 3 1 4.203125 2.77734375 C4.54859375 3.49019531 4.8940625 4.20304688 5.25 4.9375 C5.78367187 6.00291016 5.78367187 6.00291016 6.328125 7.08984375 C6.54984375 7.72019531 6.7715625 8.35054687 7 9 C6.67 9.66 6.34 10.32 6 11 C3.02753198 8.45217026 1.58464712 5.54659117 0 2 C0 1.34 0 0.68 0 0 Z " fill="#69CED2" transform="translate(768,240)"></path>
<path d="M0 0 C0.66 0 1.32 0 2 0 C1.82374165 2.37948772 1.30280227 3.70225849 -0.40234375 5.37890625 C-1.90649092 6.62115486 -3.45129851 7.81376056 -5 9 C-4.42676569 5.13066838 -2.61046448 2.84777943 0 0 Z " fill="#45A0A8" transform="translate(671,813)"></path>
<path d="M0 0 C-1.45537568 0.83848804 -2.91440373 1.67063934 -4.375 2.5 C-5.59316406 3.19609375 -5.59316406 3.19609375 -6.8359375 3.90625 C-9 5 -9 5 -11 5 C-11 4.34 -11 3.68 -11 3 C-10.34 3 -9.68 3 -9 3 C-9 2.34 -9 1.68 -9 1 C-5.47051709 -0.66670026 -3.71727674 -1.13583456 0 0 Z " fill="#61C8CB" transform="translate(510,763)"></path>
<path d="M0 0 C0.66 1.32 1.32 2.64 2 4 C0.7260411 6.03833424 -0.61061923 8.03852126 -2 10 C-2.66 10 -3.32 10 -4 10 C-2.8905928 6.51329166 -1.73662334 3.22515763 0 0 Z " fill="#4EABB2" transform="translate(655,741)"></path>
<path d="M0 0 C1.47919922 0.19142578 1.47919922 0.19142578 2.98828125 0.38671875 C4.47908203 0.56654297 4.47908203 0.56654297 6 0.75 C6.75925781 0.85699219 7.51851563 0.96398437 8.30078125 1.07421875 C8.30078125 1.40421875 8.30078125 1.73421875 8.30078125 2.07421875 C3.53770688 3.02683362 -0.86587155 3.15755232 -5.69921875 3.07421875 C-3.85219692 0.62202936 -3.13798948 0.08628336 0 0 Z " fill="#79D8D4" transform="translate(336.69921875,586.92578125)"></path>
<path d="M0 0 C0.66 0 1.32 0 2 0 C0.44499019 3.81684226 -2.03595495 6.19195732 -5 9 C-5.33 8.34 -5.66 7.68 -6 7 C-5.04882866 5.8274869 -4.08882991 4.66212985 -3.125 3.5 C-2.59132812 2.8503125 -2.05765625 2.200625 -1.5078125 1.53125 C-0.76144531 0.77328125 -0.76144531 0.77328125 0 0 Z " fill="#73D6CE" transform="translate(221,533)"></path>
<path d="M0 0 C4.50802601 1.25805377 7.4912812 2.90407165 11 6 C8.69 5.67 6.38 5.34 4 5 C4 4.34 4 3.68 4 3 C2.68 2.67 1.36 2.34 0 2 C0 1.34 0 0.68 0 0 Z " fill="#53BBC1" transform="translate(760,438)"></path>
<path d="M0 0 C6.875 0.875 6.875 0.875 8 2 C10.32817964 2.36760731 12.6618385 2.70241581 15 3 C15 3.33 15 3.66 15 4 C5.23625255 4.38289206 5.23625255 4.38289206 1 2 C0.67 1.34 0.34 0.68 0 0 Z " fill="#71C7CC" transform="translate(758,387)"></path>
<path d="M0 0 C0.75 1.5625 0.75 1.5625 1 4 C-0.13084437 6.50286409 -1.52139516 8.67007722 -3 11 C-3.91078492 8.44980222 -4.17843392 7.40445022 -3.0625 4.875 C-2.711875 4.25625 -2.36125 3.6375 -2 3 C-2 2.34 -2 1.68 -2 1 C-1.34 0.67 -0.68 0.34 0 0 Z " fill="#40A2AB" transform="translate(702,769)"></path>
<path d="M0 0 C0.66 0.33 1.32 0.66 2 1 C-1.17320782 4.53586014 -3.16743695 6.58578031 -8 7 C-5.42215154 4.35247996 -3.08351902 2.05567935 0 0 Z " fill="#54C0C2" transform="translate(553,661)"></path>
<path d="M0 0 C0 0.66 0 1.32 0 2 C-5.94 2.495 -5.94 2.495 -12 3 C-7.09396701 -0.67952474 -5.82490317 -0.29124516 0 0 Z " fill="#227F82" transform="translate(533,840)"></path>
<path d="M0 0 C0.66 0 1.32 0 2 0 C0.6302836 3.99500618 -1.25722422 6.80009492 -4 10 C-3.47731534 7.23723823 -2.89130413 4.6739124 -2 2 C-1.34 2 -0.68 2 0 2 C0 1.34 0 0.68 0 0 Z " fill="#50A9B1" transform="translate(694,783)"></path>
<path d="M0 0 C0.33 0.66 0.66 1.32 1 2 C0.22265625 3.9453125 0.22265625 3.9453125 -0.9375 6.125 C-1.31777344 6.84945312 -1.69804688 7.57390625 -2.08984375 8.3203125 C-2.39019531 8.87460937 -2.69054687 9.42890625 -3 10 C-3.33 10 -3.66 10 -4 10 C-4 8.02 -4 6.04 -4 4 C-3.34 4 -2.68 4 -2 4 C-2 3.01 -2 2.02 -2 1 C-1.34 0.67 -0.68 0.34 0 0 Z " fill="#4CA8B1" transform="translate(708,758)"></path>
<path d="M0 0 C0.66 0.66 1.32 1.32 2 2 C-0.25 4.0625 -0.25 4.0625 -3 6 C-4.32 5.67 -5.64 5.34 -7 5 C-4.69 3.35 -2.38 1.7 0 0 Z " fill="#49BDC0" transform="translate(544,668)"></path>
<path d="M0 0 C0.33 0 0.66 0 1 0 C1.19672365 1.72814161 1.38196799 3.45759197 1.5625 5.1875 C1.66691406 6.15042969 1.77132812 7.11335937 1.87890625 8.10546875 C1.99758751 10.94233377 1.67765639 13.25423671 1 16 C0.67 16 0.34 16 0 16 C-0.82622671 10.39436958 -1.06795656 5.57710648 0 0 Z " fill="#619F9D" transform="translate(805,642)"></path>
<path d="M0 0 C-3.06246747 1.78409802 -5.22079273 2.22880021 -8.75 2.125 C-9.54921875 2.10695313 -10.3484375 2.08890625 -11.171875 2.0703125 C-11.77515625 2.04710937 -12.3784375 2.02390625 -13 2 C-8.24378872 -1.17080752 -5.58805025 -1.14301028 0 0 Z " fill="#61C0C6" transform="translate(623,631)"></path>
<path d="M0 0 C3.08375495 1.02791832 3.87790925 1.70106836 6 4 C6.556875 4.556875 7.11375 5.11375 7.6875 5.6875 C8.3371875 6.3371875 8.3371875 6.3371875 9 7 C4.94519369 7 3.15167025 5.45129908 0 3 C0 2.01 0 1.02 0 0 Z " fill="#4BB3BA" transform="translate(787,528)"></path>
<path d="M0 0 C0.66 0.33 1.32 0.66 2 1 C1 4 1 4 -2 6 C-4.1875 5.625 -4.1875 5.625 -6 5 C-4.02 3.35 -2.04 1.7 0 0 Z " fill="#64CECF" transform="translate(447,476)"></path>
<path d="M0 0 C4.43458973 1.3937282 6.87378374 3.60582235 10 7 C6.00118212 6.38479725 3.19641774 4.39731331 0 2 C0 1.34 0 0.68 0 0 Z " fill="#43B3BB" transform="translate(795,462)"></path>
<path d="M0 0 C0.79921875 0.29648437 1.5984375 0.59296875 2.421875 0.8984375 C3.02515625 1.13820313 3.6284375 1.37796875 4.25 1.625 C0.97814447 2.69810858 -1.17947592 2.51763102 -4.5 1.6875 C-5.29921875 1.49285156 -6.0984375 1.29820312 -6.921875 1.09765625 C-7.52515625 0.94167969 -8.1284375 0.78570313 -8.75 0.625 C-5.33677284 -1.55132374 -3.73452846 -1.42790794 0 0 Z " fill="#5FA09D" transform="translate(426.75,893.375)"></path>
<path d="M0 0 C2.97 0.33 5.94 0.66 9 1 C4.82091936 3.08954032 4.19589427 3.16552619 0 2 C0 1.34 0 0.68 0 0 Z " fill="#6CD4D0" transform="translate(262,533)"></path>
<path d="M0 0 C3.91211733 1.15585285 6.8745041 2.35534962 10 5 C5.75776898 5.3636198 3.41831915 4.5393228 0 2 C0 1.34 0 0.68 0 0 Z " fill="#5EC0C6" transform="translate(749,432)"></path>
<path d="M0 0 C0.66 0.33 1.32 0.66 2 1 C0.84826645 3.46800047 -0.04783565 5.04783565 -2 7 C-2.99 6.67 -3.98 6.34 -5 6 C-3.35 4.02 -1.7 2.04 0 0 Z " fill="#75D7D3" transform="translate(288,189)"></path>
<path d="M0 0 C0.99 0.33 1.98 0.66 3 1 C-0.465 3.97 -0.465 3.97 -4 7 C-3.6875 4.625 -3.6875 4.625 -3 2 C-2.01 1.34 -1.02 0.68 0 0 Z " fill="#207875" transform="translate(392,840)"></path>
<path d="M0 0 C0.66 0.33 1.32 0.66 2 1 C0.35 2.98 -1.3 4.96 -3 7 C-3.99 6.34 -4.98 5.68 -6 5 C-4.02 3.35 -2.04 1.7 0 0 Z " fill="#64C7C9" transform="translate(535,674)"></path>
<path d="M0 0 C3.91211733 1.15585285 6.8745041 2.35534962 10 5 C6.28111761 4.49287967 3.26545761 3.88391785 0 2 C0 1.34 0 0.68 0 0 Z " fill="#78D9DA" transform="translate(639,115)"></path>
<path d="M0 0 C0.66 0.33 1.32 0.66 2 1 C0.02 3.31 -1.96 5.62 -4 8 C-4.66 7.67 -5.32 7.34 -6 7 C-4.02 4.69 -2.04 2.38 0 0 Z " fill="#419AA1" transform="translate(613,795)"></path>
<path d="M0 0 C-1.97420135 2.52259061 -2.96745642 2.9929808 -6.1875 3.6875 C-7.5796875 3.8421875 -7.5796875 3.8421875 -9 4 C-9 3.34 -9 2.68 -9 2 C-5.86501708 0.14223235 -3.62528568 -0.20140476 0 0 Z " fill="#61C2C5" transform="translate(270,480)"></path>
<path d="M0 0 C0.66 0 1.32 0 2 0 C4.09350689 3.4019487 4.17942163 6.05272412 4 10 C1.81024227 6.71536341 1.00193437 3.79303725 0 0 Z " fill="#68CCCF" transform="translate(720,273)"></path>
<path d="M0 0 C0.66 0.33 1.32 0.66 2 1 C0.68 2.65 -0.64 4.3 -2 6 C-2.99 5.67 -3.98 5.34 -5 5 C-3.35 3.35 -1.7 1.7 0 0 Z " fill="#55C3C5" transform="translate(514,690)"></path>
<path d="M0 0 C-1.231394 2.46278801 -2.78064923 3.42497687 -5 5 C-5.99 4.34 -6.98 3.68 -8 3 C-3.375 0 -3.375 0 0 0 Z " fill="#63C4C7" transform="translate(589,641)"></path>
<path d="M0 0 C-1 2 -1 2 -4 4 C-6.6875 4.125 -6.6875 4.125 -9 4 C-3.7826087 0 -3.7826087 0 0 0 Z " fill="#4E908D" transform="translate(418,624)"></path>
<path d="M0 0 C1.32 0 2.64 0 4 0 C4 0.66 4 1.32 4 2 C0.77208445 4.1519437 -0.28400809 4.20086443 -4 4 C-2.68 3.34 -1.36 2.68 0 2 C0 1.34 0 0.68 0 0 Z " fill="#47B6BD" transform="translate(782,384)"></path>
</svg>